<?xml version="1.0" standalone="no"?>
<!DOCTYPE svg PUBLIC "-//W3C//DTD SVG 20010904//EN"
 "http://www.w3.org/TR/2001/REC-SVG-20010904/DTD/svg10.dtd">
<svg version="1.0" xmlns="http://www.w3.org/2000/svg"
 width="542.000000pt" height="542.000000pt" viewBox="0 0 542.000000 542.000000"
 preserveAspectRatio="xMidYMid meet">
<metadata>
Created by potrace 1.11, written by Peter Selinger 2001-2013
</metadata>
<g transform="translate(0.000000,542.000000) scale(0.100000,-0.100000)"
fill="#000000" stroke="none">
<path d="M1637 4223 c-1 0 -130 -4 -287 -8 -156 -3 -287 -8 -289 -11 -3 -2 -5
-52 -5 -110 -1 -91 1 -107 17 -115 9 -5 17 -7 17 -5 0 3 11 1 26 -4 14 -6 38
-12 54 -15 32 -6 195 -43 223 -51 16 -5 17 -67 17 -1129 l0 -1124 -37 -10
c-21 -6 -49 -12 -63 -15 -14 -2 -56 -12 -95 -21 -38 -9 -80 -19 -92 -21 -70
-14 -68 -10 -68 -140 l1 -119 562 -3 562 -2 0 125 c0 69 -3 125 -7 125 -8 0
-259 52 -343 71 l-45 10 0 1029 c0 567 3 1030 6 1030 4 0 9 -10 12 -22 11 -50
88 -249 132 -343 26 -55 67 -140 90 -190 23 -49 67 -142 98 -205 64 -135 268
-562 352 -738 l59 -123 71 5 c38 3 113 8 165 12 52 3 96 7 97 7 2 3 318 645
515 1047 72 146 143 299 160 340 37 94 48 121 73 177 l20 45 0 -1036 0 -1035
-45 -10 c-25 -6 -56 -13 -70 -15 -14 -2 -79 -16 -145 -30 -66 -14 -123 -26
-127 -26 -5 0 -8 -56 -8 -125 l0 -125 583 0 582 0 0 124 1 123 -76 19 c-41 10
-81 19 -89 20 -19 4 -109 24 -153 35 l-38 10 0 1124 0 1125 23 5 c213 49 320
75 326 80 3 4 6 60 6 126 l0 120 -240 -7 c-425 -11 -469 -12 -551 -13 l-82 -1
-32 -67 c-109 -226 -181 -376 -207 -433 -17 -36 -66 -137 -108 -225 -87 -181
-160 -332 -247 -515 -33 -69 -89 -187 -126 -263 l-66 -138 -18 38 c-10 21 -33
72 -52 113 -18 41 -46 102 -61 135 -15 33 -44 98 -65 145 -21 47 -50 112 -65
145 -142 309 -485 1070 -485 1077 0 7 -356 8 -363 1z"/>
</g>
</svg>
