<?xml version="1.0" standalone="no"?>
<!DOCTYPE svg PUBLIC "-//W3C//DTD SVG 20010904//EN"
 "http://www.w3.org/TR/2001/REC-SVG-20010904/DTD/svg10.dtd">
<svg version="1.0" xmlns="http://www.w3.org/2000/svg"
 width="512.000000pt" height="512.000000pt" viewBox="0 0 512.000000 512.000000"
 preserveAspectRatio="xMidYMid meet">
<metadata>
Created by potrace 1.11, written by Peter Selinger 2001-2013
</metadata>
<g transform="translate(0.000000,512.000000) scale(0.100000,-0.100000)"
fill="#000000" stroke="none">
<path d="M774 2520 l0 -1680 231 2 230 3 0 1213 c0 814 3 1208 10 1198 5 -8
278 -462 605 -1009 l595 -995 92 -3 c51 -2 103 -2 115 1 16 4 51 53 123 175
202 338 583 979 831 1395 139 234 258 433 266 443 13 19 14 -59 17 -2075 l1
-348 231 0 230 0 -3 1680 -3 1680 -198 -2 -198 -3 -225 -385 c-124 -212 -250
-425 -279 -475 -29 -49 -227 -387 -439 -750 -212 -363 -389 -664 -393 -670 -5
-5 -14 -22 -20 -37 -7 -16 -17 -28 -22 -28 -5 0 -34 42 -63 93 -30 50 -155
261 -278 467 -123 206 -231 389 -240 405 -10 17 -124 210 -255 430 -131 220
-312 525 -402 678 l-165 277 -197 0 -197 0 0 -1680z"/>
</g>
</svg>
